<?xml version="1.0" encoding="UTF-8"?>
<svg id="Layer_1" xmlns="http://www.w3.org/2000/svg" version="1.1" xmlns:xlink="http://www.w3.org/1999/xlink" viewBox="0 0 2560 1440">
  <!-- Generator: Adobe Illustrator 29.7.1, SVG Export Plug-In . SVG Version: 2.1.1 Build 8)  -->
  <defs>
    <style>
      .st0 {
        fill: none;
        stroke: #b9cde0;
        stroke-miterlimit: 10;
        stroke-width: 3px;
      }

      .st1 {
        fill: url(#linear-gradient);
      }
    </style>
    <linearGradient id="linear-gradient" x1="1280" y1="1440" x2="1280" y2="0" gradientTransform="translate(0 1440) scale(1 -1)" gradientUnits="userSpaceOnUse">
      <stop offset="0" stop-color="#f0f4f4"/>
      <stop offset=".3" stop-color="#f0f4f4" stop-opacity=".7"/>
      <stop offset=".7" stop-color="#f0f4f4" stop-opacity=".9"/>
      <stop offset=".9" stop-color="#f0f4f4"/>
    </linearGradient>
  </defs>
  <g>
    <line class="st0" x1="2559.9" y1="1440" x2="2559.9"/>
    <line class="st0" x1="2477.3" y1="1440" x2="2477.3"/>
    <line class="st0" x1="2394.8" y1="1440" x2="2394.8"/>
    <line class="st0" x1="2312.3" y1="1440" x2="2312.3"/>
    <line class="st0" x1="2229.7" y1="1440" x2="2229.7"/>
    <line class="st0" x1="2147.2" y1="1440" x2="2147.2"/>
    <line class="st0" x1="2064.6" y1="1440" x2="2064.6"/>
    <line class="st0" x1="1982.1" y1="1440" x2="1982.1"/>
    <line class="st0" x1="1899.6" y1="1440" x2="1899.6"/>
    <line class="st0" x1="1817" y1="1440" x2="1817"/>
    <line class="st0" x1="1734.5" y1="1440" x2="1734.5"/>
    <line class="st0" x1="1651.9" y1="1440" x2="1651.9"/>
    <line class="st0" x1="1569.4" y1="1440" x2="1569.4"/>
    <line class="st0" x1="1486.8" y1="1440" x2="1486.8"/>
    <line class="st0" x1="1404.3" y1="1440" x2="1404.3"/>
    <line class="st0" x1="1321.8" y1="1440" x2="1321.8"/>
    <line class="st0" x1="1239.2" y1="1440" x2="1239.2"/>
    <line class="st0" x1="1156.7" y1="1440" x2="1156.7"/>
    <line class="st0" x1="1074.1" y1="1440" x2="1074.1"/>
    <line class="st0" x1="991.6" y1="1440" x2="991.6"/>
    <line class="st0" x1="909.1" y1="1440" x2="909.1"/>
    <line class="st0" x1="826.5" y1="1440" x2="826.5"/>
    <line class="st0" x1="744" y1="1440" x2="744"/>
    <line class="st0" x1="661.4" y1="1440" x2="661.4"/>
    <line class="st0" x1="578.9" y1="1440" x2="578.9"/>
    <line class="st0" x1="496.4" y1="1440" x2="496.4"/>
    <line class="st0" x1="413.8" y1="1440" x2="413.8"/>
    <line class="st0" x1="331.3" y1="1440" x2="331.3"/>
    <line class="st0" x1="248.7" y1="1440" x2="248.7"/>
    <line class="st0" x1="166.2" y1="1440" x2="166.2"/>
    <line class="st0" x1="83.7" y1="1440" x2="83.7"/>
    <line class="st0" x1="1.1" y1="1440" x2="1.1"/>
  </g>
  <g>
    <line class="st0" x1="1.1" y1="1440.8" x2="2560" y2="1440.8"/>
    <line class="st0" x1="1.1" y1="1360.8" x2="2560" y2="1360.8"/>
    <line class="st0" x1="1.1" y1="1280.8" x2="2560" y2="1280.8"/>
    <line class="st0" x1="1.1" y1="1200.7" x2="2560" y2="1200.7"/>
    <line class="st0" x1="1.1" y1="1120.7" x2="2560" y2="1120.7"/>
    <line class="st0" x1="1.1" y1="1040.6" x2="2560" y2="1040.6"/>
    <line class="st0" x1="1.1" y1="960.6" x2="2560" y2="960.6"/>
    <line class="st0" x1="1.1" y1="880.5" x2="2560" y2="880.5"/>
    <line class="st0" x1="1.1" y1="800.5" x2="2560" y2="800.5"/>
    <line class="st0" x1="1.1" y1="720.4" x2="2560" y2="720.4"/>
    <line class="st0" x1="1.1" y1="640.4" x2="2560" y2="640.4"/>
    <line class="st0" x1="1.1" y1="560.3" x2="2560" y2="560.3"/>
    <line class="st0" x1="1.1" y1="480.3" x2="2560" y2="480.3"/>
    <line class="st0" x1="1.1" y1="400.2" x2="2560" y2="400.2"/>
    <line class="st0" x1="1.1" y1="320.2" x2="2560" y2="320.2"/>
    <line class="st0" x1="1.1" y1="240.1" x2="2560" y2="240.1"/>
    <line class="st0" x1="1.1" y1="160.1" x2="2560" y2="160.1"/>
    <line class="st0" x1="1.1" y1="80" x2="2560" y2="80"/>
    <line class="st0" x1="1.1" x2="2560"/>
  </g>
  <rect class="st1" width="2560" height="1440"/>
</svg>