<?xml version="1.0" encoding="UTF-8"?>
<svg id="Layer_1" xmlns="http://www.w3.org/2000/svg" version="1.1" viewBox="0 0 70 70">
  <!-- Generator: Adobe Illustrator 29.6.1, SVG Export Plug-In . SVG Version: 2.1.1 Build 9)  -->
  <defs>
    <style>
      .st0 {
        fill: #f0f4f4;
      }

      .st1 {
        fill: #1739ff;
      }
    </style>
  </defs>
  <rect class="st0" x="8.2" y="7.7" width="53.2" height="56.8"/>
  <path class="st1" d="M0,6v58c0,3.3,2.7,6,6,6h58c3.3,0,6-2.7,6-6V6c0-3.3-2.7-6-6-6H6C2.7,0,0,2.7,0,6ZM30.3,11.8c1.2-1.2,2.7-1.7,4.5-1.7s3.2.6,4.4,1.7c1.2,1.2,1.8,2.6,1.8,4.4s-.6,3.2-1.8,4.4c-1.2,1.2-2.7,1.8-4.4,1.8s-3.2-.6-4.4-1.8-1.8-2.7-1.8-4.4.6-3.2,1.8-4.4h-.1ZM45.4,59.4h-20.4v-3c1.6-.2,2.7-.5,3.3-.8.7-.3,1.1-.9,1.4-1.7s.4-2.2.4-4v-11.5c0-1.6-.2-2.8-.5-3.6s-.9-1.3-1.6-1.6-1.8-.5-3.3-.7h0v-2.6l15.8-3.9v23.9c0,1.8.2,3.2.4,4s.7,1.4,1.3,1.7c.7.3,1.8.6,3.3.9v3h0Z"/>
</svg>