<?xml version="1.0" encoding="UTF-8"?>
<svg id="Layer_1" data-name="Layer 1" xmlns="http://www.w3.org/2000/svg" viewBox="0 0 72 72">
  <defs>
    <style>
      .cls-1 {
        fill: #1739ff;
      }
    </style>
  </defs>
  <path class="cls-1" d="M26.2,47.54c0,2,.47,6.24,5.82,6.24,2.06,0,4.15-1.64,5.92-4.54-1.08-2.01-2.09-5.17-2.77-8.34-.13-.1-.26-.19-.37-.3,0,0-1.56-1.3-3.59-1.3-5.12,0-5.02,7.93-5.02,8.24Z"/>
  <path class="cls-1" d="M0,12v48c0,6.63,5.37,12,12,12h48c6.63,0,12-5.37,12-12V12c0-6.63-5.37-12-12-12H12C5.37,0,0,5.37,0,12ZM34.16,29.95c0-.18.06-16.71,6.71-16.71,3.17,0,6.16,2.85,6.16,16.9,0,5.02-.85,12.31-3.83,18.31,1.29,1.67,2.58,2.2,3.43,1.8,2.41-1.16,3.96-5.23,5.41-9.67.4-1.21,1.74-1.87,2.98-1.5,1.26.39,1.96,1.67,1.56,2.86-1.22,3.77-4.65,13.1-9.83,13.1-1.64,0-3.85-.06-5.96-2.12-2.37,3.22-5.31,5.37-8.8,5.37-7.39,0-10.7-5.61-10.7-11.18,0-5.91,3.03-12.87,9.87-12.87,1.16,0,2.22.21,3.14.53-.13-1.61-.13-2.9-.13-4.83Z"/>
</svg>