<?xml version="1.0" encoding="UTF-8"?>
<svg id="Layer_1" data-name="Layer 1" xmlns="http://www.w3.org/2000/svg" viewBox="0 0 72 72">
  <defs>
    <style>
      .cls-1 {
        fill: #1739ff;
      }
    </style>
  </defs>
  <path class="cls-1" d="M0,12v48c0,6.63,5.37,12,12,12h48c6.63,0,12-5.37,12-12V12c0-6.63-5.37-12-12-12H12C5.37,0,0,5.37,0,12ZM47.94,42.66c-5.58,7.31-10.27,10.87-14.18,10.87-2.35,0-4.4-2.17-6.07-6.62-1.08-4.05-2.25-8.1-3.33-12.16-1.27-4.45-2.54-6.62-3.91-6.62-.29,0-1.37.5-3.23,1.78l-1.96-2.51c2.06-1.78,3.91-3.06,5.87-4.84,2.74-2.37,4.38-3.65,5.74-3.74,3.23-.3,5.5,2.2,6.19,6.85.79,5.04,1.47,7.71,1.76,8.9.88,4.15,1.7,5.7,2.77,5.7.88,0,2.41-.76,4.17-3.43,1.76-2.77,2.35-5.16,2.45-6.64.29-2.37-.39-3.14-2.45-3.14-.98,0-2.06.49-3.13.89,2.06-6.62,5.4-10.02,11.46-10.02,4.3.1,6.45,2.7,6.25,8.04-.2,4.05-2.95,9.78-8.42,16.7Z"/>
</svg>