<?xml version="1.0" encoding="UTF-8"?>
<svg id="Layer_1" data-name="Layer 1" xmlns="http://www.w3.org/2000/svg" viewBox="0 0 72 72">
  <defs>
    <style>
      .cls-1 {
        fill: #1739ff;
      }
    </style>
  </defs>
  <path class="cls-1" d="M0,12v48c0,6.63,5.37,12,12,12h48c6.63,0,12-5.37,12-12V12c0-6.63-5.37-12-12-12H12C5.37,0,0,5.37,0,12ZM59.4,8.72c2.14,0,3.88,1.74,3.88,3.88s-1.74,3.88-3.88,3.88-3.88-1.74-3.88-3.88,1.74-3.88,3.88-3.88ZM36.12,16.48c10.71,0,19.4,8.69,19.4,19.4s-8.69,19.4-19.4,19.4-19.4-8.69-19.4-19.4,8.69-19.4,19.4-19.4ZM36.12,24.24c-6.43,0-11.64,5.21-11.64,11.64s5.21,11.64,11.64,11.64,11.64-5.21,11.64-11.64-5.21-11.64-11.64-11.64Z"/>
</svg>