<?xml version="1.0" encoding="UTF-8"?>
<svg id="Layer_2" xmlns="http://www.w3.org/2000/svg" version="1.1" viewBox="0 0 116.7 116.7">
  <!-- Generator: Adobe Illustrator 29.2.1, SVG Export Plug-In . SVG Version: 2.1.0 Build 116)  -->
  <defs>
    <style>
      .st0 {
        fill: #1739ff;
      }

      .st1 {
        fill: none;
        stroke: #2b303a;
        stroke-linecap: round;
        stroke-miterlimit: 10;
        stroke-width: 4px;
      }
    </style>
  </defs>
  <g id="Layer_3">
    <circle class="st0" cx="58.3" cy="58.3" r="58.3"/>
    <line class="st1" x1="29.5" y1="78.6" x2="29.5" y2="38.1"/>
    <path class="st1" d="M86.2,39.6l-27.1,8.9c-.3.1-.7.1-1,0l-27.1-8.9c-1.4-.4-1.4-2.4,0-2.9l27.1-8.9c.3-.1.7-.1,1,0l27.1,8.9c1.3.4,1.3,2.4,0,2.9Z"/>
    <path class="st1" d="M86.2,80.1l-27.1,8.9c-.3.1-.7.1-1,0l-27.1-8.9c-1.4-.4-1.4-2.4,0-2.9l27.1-8.9c.3-.1.7-.1,1,0l27.1,8.9c1.3.3,1.3,2.3,0,2.9Z"/>
    <line class="st1" x1="87.2" y1="78.6" x2="87.2" y2="38.1"/>
    <line class="st1" x1="58.9" y1="89" x2="58.9" y2="48.5"/>
  </g>
</svg>