<?xml version="1.0" encoding="UTF-8"?>
<svg id="Layer_1" data-name="Layer 1" xmlns="http://www.w3.org/2000/svg" viewBox="0 0 72 72">
  <defs>
    <style>
      .cls-1 {
        fill: #1739ff;
      }
    </style>
  </defs>
  <path class="cls-1" d="M0,12v48c0,6.63,5.37,12,12,12h48c6.63,0,12-5.37,12-12V12c0-6.63-5.37-12-12-12H12C5.37,0,0,5.37,0,12ZM26.36,55.36h-9.05v-25.12h9.05v25.12ZM21.8,24.84c-2.84,0-4.74-1.89-4.74-4.42s1.89-4.42,5.05-4.42c2.84,0,4.74,1.89,4.74,4.42s-1.89,4.42-5.05,4.42ZM59.77,55.36h-9v-14.09c0-3.9-2.4-4.8-3.3-4.8s-3.9.6-3.9,4.8v14.09h-9.29v-25.79h9.29v3.6c1.2-2.1,3.6-3.6,8.09-3.6s8.1,3.6,8.1,11.69v14.09Z"/>
</svg>